<svg width="145" height="26" viewBox="0 0 145 26" fill="none" xmlns="http://www.w3.org/2000/svg">
<path d="M12.504 25.384C10.7973 25.384 9.21867 25.0747 7.768 24.456C6.33867 23.8373 5.08 22.9733 3.992 21.864C2.92533 20.7547 2.09333 19.4533 1.496 17.96C0.898667 16.4667 0.6 14.8347 0.6 13.064C0.6 11.2933 0.888 9.66133 1.464 8.168C2.06133 6.65333 2.89333 5.352 3.96 4.264C5.048 3.15467 6.31733 2.30133 7.768 1.704C9.21867 1.08533 10.7973 0.775999 12.504 0.775999C14.2107 0.775999 15.736 1.064 17.08 1.64C18.4453 2.216 19.5973 2.984 20.536 3.944C21.4747 4.88267 22.1467 5.91733 22.552 7.048L18.648 8.872C18.2 7.67733 17.4427 6.696 16.376 5.928C15.3093 5.13867 14.0187 4.744 12.504 4.744C11.0107 4.744 9.688 5.096 8.536 5.8C7.40533 6.504 6.52 7.47467 5.88 8.712C5.26133 9.94933 4.952 11.4 4.952 13.064C4.952 14.728 5.26133 16.1893 5.88 17.448C6.52 18.6853 7.40533 19.656 8.536 20.36C9.688 21.064 11.0107 21.416 12.504 21.416C14.0187 21.416 15.3093 21.032 16.376 20.264C17.4427 19.4747 18.2 18.4827 18.648 17.288L22.552 19.112C22.1467 20.2427 21.4747 21.288 20.536 22.248C19.5973 23.1867 18.4453 23.944 17.08 24.52C15.736 25.096 14.2107 25.384 12.504 25.384ZM29.7408 25.384C28.5248 25.384 27.4688 25.1813 26.5728 24.776C25.6768 24.3707 24.9834 23.7947 24.4928 23.048C24.0021 22.28 23.7568 21.3947 23.7568 20.392C23.7568 19.432 23.9701 18.5787 24.3968 17.832C24.8234 17.064 25.4848 16.424 26.3808 15.912C27.2768 15.4 28.4074 15.0373 29.7728 14.824L35.4688 13.896V17.096L30.5728 17.928C29.7408 18.0773 29.1221 18.344 28.7168 18.728C28.3114 19.112 28.1088 19.6133 28.1088 20.232C28.1088 20.8293 28.3328 21.3093 28.7808 21.672C29.2501 22.0133 29.8261 22.184 30.5088 22.184C31.3834 22.184 32.1514 22.0027 32.8128 21.64C33.4954 21.256 34.0181 20.7333 34.3808 20.072C34.7648 19.4107 34.9568 18.6853 34.9568 17.896V13.416C34.9568 12.6693 34.6581 12.0507 34.0608 11.56C33.4848 11.048 32.7168 10.792 31.7568 10.792C30.8608 10.792 30.0608 11.0373 29.3568 11.528C28.6741 11.9973 28.1728 12.6267 27.8528 13.416L24.4288 11.752C24.7701 10.8347 25.3034 10.0453 26.0288 9.384C26.7754 8.70133 27.6501 8.168 28.6528 7.784C29.6554 7.4 30.7434 7.208 31.9168 7.208C33.3461 7.208 34.6048 7.47467 35.6928 8.008C36.7808 8.52 37.6234 9.24533 38.2208 10.184C38.8394 11.1013 39.1488 12.1787 39.1488 13.416V25H35.1808V22.024L36.0768 21.96C35.6288 22.7067 35.0954 23.336 34.4768 23.848C33.8581 24.3387 33.1541 24.7227 32.3648 25C31.5754 25.256 30.7008 25.384 29.7408 25.384ZM42.0633 25V7.592H45.9993V11.464L45.6793 10.888C46.0846 9.58667 46.7139 8.68 47.5673 8.168C48.4419 7.656 49.4873 7.4 50.7033 7.4H51.7273V11.112H50.2233C49.0286 11.112 48.0686 11.4853 47.3433 12.232C46.6179 12.9573 46.2553 13.9813 46.2553 15.304V25H42.0633ZM53.424 25V1.16H69.328V5H57.776V11.592H67.888V15.432H57.776V25H53.424ZM70.862 25V7.592H75.054V25H70.862ZM70.862 5.64V1.16H75.054V5.64H70.862ZM77.9645 25V7.592H81.9005V11.016L81.5805 10.408C81.9858 9.36267 82.6472 8.57333 83.5645 8.04C84.5032 7.48533 85.5912 7.208 86.8285 7.208C88.1085 7.208 89.2392 7.48533 90.2205 8.04C91.2232 8.59467 92.0018 9.37333 92.5565 10.376C93.1112 11.3573 93.3885 12.4987 93.3885 13.8V25H89.1965V14.792C89.1965 14.024 89.0472 13.3627 88.7485 12.808C88.4498 12.2533 88.0338 11.8267 87.5005 11.528C86.9885 11.208 86.3805 11.048 85.6765 11.048C84.9938 11.048 84.3858 11.208 83.8525 11.528C83.3192 11.8267 82.9032 12.2533 82.6045 12.808C82.3058 13.3627 82.1565 14.024 82.1565 14.792V25H77.9645ZM104.069 25.384C102.384 25.384 100.88 24.9893 99.5572 24.2C98.2346 23.3893 97.1892 22.2907 96.4212 20.904C95.6532 19.5173 95.2692 17.9813 95.2692 16.296C95.2692 14.5893 95.6532 13.0533 96.4212 11.688C97.1892 10.3227 98.2346 9.23467 99.5572 8.424C100.901 7.61333 102.395 7.208 104.037 7.208C105.36 7.208 106.533 7.47467 107.557 8.008C108.603 8.52 109.424 9.24533 110.021 10.184L109.381 11.048V0.775999H113.573V25H109.605V21.64L110.053 22.472C109.456 23.4107 108.624 24.136 107.557 24.648C106.491 25.1387 105.328 25.384 104.069 25.384ZM104.517 21.544C105.477 21.544 106.32 21.32 107.045 20.872C107.771 20.424 108.336 19.8053 108.741 19.016C109.168 18.2267 109.381 17.32 109.381 16.296C109.381 15.2933 109.168 14.3973 108.741 13.608C108.336 12.7973 107.771 12.168 107.045 11.72C106.32 11.272 105.477 11.048 104.517 11.048C103.579 11.048 102.736 11.2827 101.989 11.752C101.243 12.2 100.656 12.8187 100.229 13.608C99.8239 14.376 99.6212 15.272 99.6212 16.296C99.6212 17.32 99.8239 18.2267 100.229 19.016C100.656 19.8053 101.243 20.424 101.989 20.872C102.736 21.32 103.579 21.544 104.517 21.544ZM124.769 25.384C122.977 25.384 121.409 24.9787 120.065 24.168C118.721 23.3573 117.676 22.2587 116.929 20.872C116.183 19.4853 115.809 17.9493 115.809 16.264C115.809 14.5147 116.183 12.968 116.929 11.624C117.697 10.2587 118.732 9.18133 120.033 8.392C121.356 7.60266 122.828 7.208 124.449 7.208C125.815 7.208 127.009 7.432 128.033 7.88C129.079 8.328 129.964 8.94667 130.689 9.736C131.415 10.5253 131.969 11.432 132.353 12.456C132.737 13.4587 132.929 14.5467 132.929 15.72C132.929 16.0187 132.908 16.328 132.865 16.648C132.844 16.968 132.791 17.2453 132.705 17.48H119.265V14.28H130.337L128.353 15.784C128.545 14.8027 128.492 13.928 128.193 13.16C127.916 12.392 127.447 11.784 126.785 11.336C126.145 10.888 125.367 10.664 124.449 10.664C123.575 10.664 122.796 10.888 122.113 11.336C121.431 11.7627 120.908 12.4027 120.545 13.256C120.204 14.088 120.076 15.1013 120.161 16.296C120.076 17.3627 120.215 18.312 120.577 19.144C120.961 19.9547 121.516 20.584 122.241 21.032C122.988 21.48 123.841 21.704 124.801 21.704C125.761 21.704 126.572 21.5013 127.233 21.096C127.916 20.6907 128.449 20.1467 128.833 19.464L132.225 21.128C131.884 21.96 131.351 22.696 130.625 23.336C129.9 23.976 129.036 24.4773 128.033 24.84C127.052 25.2027 125.964 25.384 124.769 25.384ZM135.147 25V7.592H139.083V11.464L138.763 10.888C139.168 9.58667 139.798 8.68 140.651 8.168C141.526 7.656 142.571 7.4 143.787 7.4H144.811V11.112H143.307C142.112 11.112 141.152 11.4853 140.427 12.232C139.702 12.9573 139.339 13.9813 139.339 15.304V25H135.147Z" fill="#3563E9"/>
</svg>
